<svg viewBox="0 0 64 64" fill="none" stroke="currentColor" stroke-width="2.4" stroke-linecap="round" stroke-linejoin="round" xmlns="http://www.w3.org/2000/svg">
  <path d="M18 20h28a4 4 0 0 1 4 4v14a4 4 0 0 1-4 4H18a4 4 0 0 1-4-4V24a4 4 0 0 1 4-4Z"/>
  <path d="M20 26h15" opacity="0.55"/>
  <path d="M20 32h20" opacity="0.55"/>
  <path d="M20 38h12" opacity="0.55"/>
  <path d="M26 42v8"/>
  <path d="M38 42v8"/>
  <path d="M22 52h20"/>
  <path d="M46 24l4-4"/>
  <path d="M48 26l4-4" opacity="0.6"/>
</svg>
